<svg id="Outline" xmlns="http://www.w3.org/2000/svg" width="25.778" height="32" viewBox="0 0 25.778 32">
  <path id="Shape" d="M21.72,1.689A21.775,21.775,0,0,0,12.889,0,21.775,21.775,0,0,0,4.058,1.689C1.44,2.884,0,4.569,0,6.431V25.569c0,1.862,1.44,3.555,4.058,4.742A21.76,21.76,0,0,0,12.889,32a21.759,21.759,0,0,0,8.831-1.689c2.618-1.2,4.058-2.88,4.058-4.742V6.431C25.778,4.569,24.338,2.884,21.72,1.689Zm2.1,20.751v3.111c0,1.04-1.062,2.12-2.92,2.969a19.774,19.774,0,0,1-8,1.511,19.728,19.728,0,0,1-8-1.511c-1.858-.849-2.92-1.929-2.92-2.969V22.44a9.9,9.9,0,0,0,2.1,1.258,21.775,21.775,0,0,0,8.831,1.689A21.774,21.774,0,0,0,21.747,23.7a10.009,10.009,0,0,0,2.076-1.258Zm-2.933-.516a19.774,19.774,0,0,1-8,1.511,19.728,19.728,0,0,1-8-1.511C3.018,21.076,1.956,20,1.956,18.956V15.844a10.224,10.224,0,0,0,2.1,1.262,21.838,21.838,0,0,0,8.831,1.684,21.837,21.837,0,0,0,8.831-1.684,10.227,10.227,0,0,0,2.1-1.262v3.111C23.822,20,22.76,21.076,20.889,21.924Zm0-6.613a19.774,19.774,0,0,1-8,1.511,19.728,19.728,0,0,1-8-1.511c-1.858-.849-2.92-1.929-2.92-2.969V9.916a10.222,10.222,0,0,0,2.1,1.262A21.777,21.777,0,0,0,12.9,12.862a21.777,21.777,0,0,0,8.831-1.684,10.225,10.225,0,0,0,2.1-1.262v2.427c-.013,1.04-1.076,2.12-2.947,2.969Zm0-5.907a19.776,19.776,0,0,1-8,1.507,19.73,19.73,0,0,1-8-1.507c-1.858-.849-2.92-1.933-2.92-2.973s1.049-2.12,2.92-2.969a19.773,19.773,0,0,1,8-1.511,19.728,19.728,0,0,1,8,1.511c1.858.849,2.92,1.929,2.92,2.969S22.76,8.551,20.889,9.4Z" transform="translate(0)" fill="#7c7c7c"/>
</svg>
